<?xml version="1.0" encoding="UTF-8"?>
<svg width="752px" height="169px" viewBox="0 0 752 169" version="1.1" xmlns="http://www.w3.org/2000/svg" xmlns:xlink="http://www.w3.org/1999/xlink">
    <!-- Generator: Sketch 43.2 (39069) - http://www.bohemiancoding.com/sketch -->
    <title>Group</title>
    <desc>Created with Sketch.</desc>
    <defs></defs>
    <g id="Page-1" stroke="none" stroke-width="1" fill="none" fill-rule="evenodd" fill-opacity="0.68">
        <g id="Group" fill-rule="nonzero">
            <path d="M504.043956,113.108538 C498.559862,122.417355 485.220245,138.373905 459.140931,135.702737 C446.676029,134.426022 447.62457,128.09824 453.149546,119.954786 C450.68401,120.118058 448.037051,120.110062 445.198522,119.891286 C429.802905,118.704687 440.380834,110.158119 450.104888,101.642578 C454.52859,102.243157 459.313205,102.783803 464.378914,103.201666 C469.948251,105.145763 484.479259,109.818154 504.043956,113.108538 Z M414.410715,90.9413366 C413.054347,93.6645651 412.691773,97.2668306 413.719507,102.0884 C394.248037,107.155152 374.778872,106.216524 359.884117,103.903714 C369.247473,97.2903357 383.927307,89.1208677 404.332032,83.9260391 L404.332032,83.9260391 C408.626565,86.4719715 411.974525,88.9391024 414.410715,90.9413366 Z" id="Combined-Shape" fill="#631C40"></path>
            <path d="M347.222022,114.678329 C347.222022,114.678329 301.742384,27.0258563 265.987513,29.9752201 C248.707087,36.007326 188.023584,156.446028 107.303691,134.747095 C122.727361,59.9952013 2.84217094e-14,110.408028 2.84217094e-14,54.7119985 L0,0 L751.44337,0 L751.44337,118.330267 C751.44337,118.330267 732.188235,174.601262 671.42395,168.171716 C650.655285,165.974157 652.235716,155.082396 661.441275,141.065391 C657.333269,141.346424 652.922981,141.332661 648.193505,140.95609 C600.322357,137.144487 703.169176,89.2127678 666.218163,79.8447738 C658.633817,77.921955 459.27194,42.4544006 444.137032,41.5183257 C422.876061,44.23669 590.045634,82.6948356 595.744066,110.312685 C536.40652,126.263666 477.081831,107.635893 464.378914,103.201666 C438.095352,101.033575 419.379054,95.5600477 419.379054,95.5600477 C419.379054,95.5600477 414.518185,89.9647063 404.332032,83.9260391 C365.30625,93.8615933 347.222022,114.678329 347.222022,114.678329 Z" id="Combined-Shape-Copy-5" fill="#F14700"></path>
            <path d="M350.657461,111.270471 C348.352286,113.377283 347.222022,114.678329 347.222022,114.678329 C347.222022,114.678329 321.761286,122.124248 286.006415,125.073612 C268.725989,131.105718 188.023584,156.446028 107.303691,134.747095 C122.727361,59.9952013 2.84217094e-14,110.408028 2.84217094e-14,54.7119985 L0,0 L751.44337,0 L751.44337,118.330267 C751.44337,118.330267 746.629586,132.398016 734.220267,145.662071 C721.810947,158.926127 701.806093,171.386489 671.42395,168.171716 C650.655285,165.974157 652.235716,155.082396 661.441275,141.065391 C657.333269,141.346424 652.922981,141.332661 648.193505,140.95609 C600.322357,137.144487 703.169176,89.2127678 666.218163,79.8447738 C665.435664,79.646391 662.61176,79.0909362 658.159395,78.2531735 C651.010076,77.129135 641.843953,76.2548644 631.261308,75.6003412 C610.000337,78.3187054 590.045634,82.6948356 595.744066,110.312685 C536.40652,126.263666 477.081831,107.635893 464.378914,103.201666 C451.237133,102.11762 439.987168,100.207216 432.022648,98.5678228 C428.040388,97.7481262 424.87949,96.9961825 422.714156,96.4491628 C424.87949,96.9961825 428.040388,97.7481262 432.022648,98.5678228 C439.987168,100.207216 451.237133,102.11762 464.378914,103.201666 C477.081831,107.635893 536.40652,126.263666 595.744066,110.312685 C590.045634,82.6948356 422.876061,44.23669 444.137032,41.5183257 C457.710428,42.3578231 619.457358,70.9709487 658.159395,78.2531735 C661.234768,78.7366933 663.936951,79.2664302 666.218163,79.8447738 C703.169176,89.2127678 600.322357,137.144487 648.193505,140.95609 C652.922981,141.332661 657.333269,141.346424 661.441275,141.065391 C652.235716,155.082396 650.655285,165.974157 671.42395,168.171716 C701.806093,171.386489 721.810947,158.926127 734.220267,145.662071 C746.629586,132.398016 751.44337,118.330267 751.44337,118.330267 L751.44337,0 L0,0 L2.84217094e-14,54.7119985 C2.84217094e-14,110.408028 122.727361,59.9952013 107.303691,134.747095 C188.023584,156.446028 248.707087,36.007326 265.987513,29.9752201 C301.742384,27.0258563 347.222022,114.678329 347.222022,114.678329 C347.222022,114.678329 348.352286,113.377283 350.657461,111.270471 Z" id="Combined-Shape" fill="#631C40"></path>
            <path d="M105.443068,108.055886 C104.786503,108.197232 104.115991,108.328794 103.432745,108.448538 C98.3313424,112.231989 74.5069622,128.125911 50.6774193,114.51593 C53.3354481,87.1457165 42.095138,86.5286414 32.2773683,83.8074086 C59.1567827,88.9971922 94.7085423,87.1836383 105.443068,108.055886 Z" id="Combined-Shape" fill="#631C40"></path>
        </g>
    </g>
</svg>