<?xml version="1.0" encoding="UTF-8"?>
<svg width="90px" height="71px" viewBox="0 0 90 71" version="1.1" xmlns="http://www.w3.org/2000/svg" xmlns:xlink="http://www.w3.org/1999/xlink">
    <!-- Generator: Sketch 43.2 (39069) - http://www.bohemiancoding.com/sketch -->
    <title>Group</title>
    <desc>Created with Sketch.</desc>
    <defs></defs>
    <g id="Page-1" stroke="none" stroke-width="1" fill="none" fill-rule="evenodd">
        <g id="Group" fill-rule="nonzero" fill="#ffffff">
            <path d="M90,60.5 L90,0.5 L0,0.5 L0,60.5 L40,60.5 L40,67.5 L30,67.5 L30,70.5 L60,70.5 L60,67.5 L50,67.5 L50,60.5 L90,60.5 Z M3,56.5 L3,3.5 L87,3.5 L87,56.5 L3,56.5 Z" id="Shape"></path>
            <path d="M47,17.5 L47.2,17.5 C47.6,17.6 47.9,18 47.9,18.4 L43.9,41.8 C43.8,42.2 43.4,42.5 43,42.5 L42.8,42.5 C42.4,42.4 42.1,42 42.1,41.6 L46.1,18.2 C46.2,17.7 46.6,17.4 47,17.5 Z" id="Shape"></path>
            <path d="M52.3,20.4 L52.2,20.5 C51.9,20.8 51.9,21.3 52.2,21.6 L60,29.4 C60.3,29.7 60.3,30.2 60,30.5 L52.2,38.3 C51.9,38.6 51.9,39.1 52.2,39.4 L52.3,39.5 C52.6,39.8 53.1,39.8 53.4,39.5 L62.5,30.4 C62.8,30.1 62.8,29.6 62.5,29.3 L53.4,20.2 C53.1,20.1 52.6,20.1 52.3,20.4 Z" id="Shape"></path>
            <path d="M37.7,39.6 L37.8,39.5 C38.1,39.2 38.1,38.7 37.8,38.4 L30,30.6 C29.7,30.3 29.7,29.8 30,29.5 L37.8,21.7 C38.1,21.4 38.1,20.9 37.8,20.6 L37.7,20.5 C37.4,20.2 36.9,20.2 36.6,20.5 L27.5,29.6 C27.2,29.9 27.2,30.4 27.5,30.7 L36.6,39.8 C36.9,39.9 37.4,39.9 37.7,39.6 Z" id="Shape"></path>
        </g>
    </g>
</svg>